<svg width="128" height="128" viewBox="0 0 128 128" fill="none" xmlns="http://www.w3.org/2000/svg">
<rect width="128" height="128" fill="#141B4D"/>
<path d="M29.5791 57.3229C25.6001 57.3229 22.3988 54.0901 22.3988 50.0717C22.3988 46.0534 25.6001 42.8206 29.5791 42.8206C33.5583 42.8206 36.7595 46.0534 36.7595 50.0717C36.7595 54.0598 33.5583 57.3229 29.5791 57.3229ZM29.5493 37.4426C26.2882 37.4426 23.2964 38.7116 21.0825 40.7963C20.3046 41.5516 19.1976 41.7329 17.941 41.7933H13.2439C11.9873 41.7933 11 42.9716 11 44.3917C11 45.8419 11.9873 46.99 13.2439 46.99H14.5902C15.9365 47.0504 17.0135 48.1683 17.0135 49.5581V52.1262V68.4716V70.8282V75.481C17.0135 76.9312 18.4795 78.0793 19.8558 78.0793C21.2021 78.0793 22.698 76.901 22.698 75.481V70.8282V62.9123C22.698 61.9757 23.0271 60.9485 24.523 61.5527C24.5529 61.5829 24.6128 61.5829 24.6426 61.6132C24.6426 61.6132 24.6726 61.6132 24.6726 61.6434C26.1685 62.2778 27.814 62.6404 29.5493 62.6404C36.4305 62.6404 42.0251 56.9905 42.0251 50.0415C42.0251 43.0925 36.4305 37.4426 29.5493 37.4426Z" fill="#F04E98"/>
<path d="M49.9236 46.99H45.7051C44.299 46.99 43.1621 45.8419 43.1621 44.4219C43.1621 43.0019 44.299 41.8538 45.7051 41.8538H55.5781C56.9842 41.8538 58.1211 43.0019 58.1211 44.4219V64.5438C58.1211 70.0426 60.4548 72.8222 65.2417 72.8222C68.9515 72.8222 71.4048 70.8282 72.5716 66.8401C72.9606 65.5711 74.2171 64.7855 75.5036 65.0273L75.6532 65.0575C77.1191 65.3596 78.0167 66.8098 77.6278 68.2601C75.8925 74.635 71.4347 77.9585 65.2417 77.9585C57.4031 77.9585 52.4966 73.0035 52.4966 64.5438V52.1564V49.5883C52.4666 48.1381 51.3298 46.99 49.9236 46.99Z" fill="#F04E98"/>
<path d="M100.604 85.6327C93.9929 85.6931 89.7445 82.9135 89.6847 78.8951C89.6548 76.9011 90.5823 76.055 91.7789 75.0883C94.2622 73.1244 106.08 73.0035 109.191 74.4235C111.016 75.2696 111.286 76.5083 111.316 78.5023C111.376 82.6717 106.948 85.5722 100.604 85.6327ZM104.913 58.3804C103.596 59.5889 102.011 60.2536 100.127 60.2536C98.2413 60.2838 96.6257 59.74 95.3691 58.5314C94.0229 57.3532 93.3945 55.6612 93.3646 53.4859C93.3347 51.3105 93.963 49.679 95.2794 48.4704C96.5359 47.2619 98.1216 46.5973 100.006 46.5973C101.891 46.5671 103.507 47.2015 104.823 48.3798C106.08 49.5581 106.738 51.2501 106.768 53.365C106.797 55.4799 106.139 57.1416 104.913 58.3804ZM115.474 68.3508C115.863 66.0243 115.594 63.3353 112.991 61.6434C112.542 61.3715 111.196 60.6162 111.286 59.5285C111.316 59.1962 111.495 58.5012 111.614 58.2898C112.183 56.8093 112.483 55.1476 112.453 53.3046C112.453 53.2441 112.453 53.2139 112.453 53.1535C112.453 53.1233 112.453 53.1233 112.453 53.0931C112.453 53.0326 112.453 52.9723 112.453 52.9118C112.423 52.1867 112.332 51.4616 112.153 50.7667C111.704 49.0143 112.183 48.7424 112.513 48.5309L115.684 47.0504C116.881 46.4764 117.329 44.9053 116.701 43.4853C116.042 42.0955 114.577 41.4006 113.35 41.9746L109.371 43.8478C108.623 44.2104 107.815 44.0291 106.948 43.5155C106.827 43.4249 106.708 43.3644 106.559 43.2738C104.674 42.1559 102.43 41.4912 100.036 41.4912C93.1851 41.4912 87.6204 46.8389 87.6204 53.4254C87.6204 60.0119 93.1851 65.3596 100.036 65.3596C100.395 65.3596 100.785 65.3294 101.143 65.2992H101.173C101.233 65.2992 101.293 65.2992 101.323 65.2992C101.503 65.2689 101.652 65.2689 101.831 65.2388C102.61 65.1179 103.357 64.9668 104.075 64.7251C104.853 64.5137 105.511 64.3022 106.109 64.3022C107.845 64.272 110.209 65.3596 110 67.535C109.879 68.7737 108.652 68.6226 105.99 68.5924H95.8179C88.2785 68.6831 84.0601 72.0971 84.1199 78.5023C84.1498 82.6717 85.7953 85.6629 89.0265 87.6872C92.2576 89.7115 96.177 90.6481 100.695 90.5876C110.956 90.4969 116.611 86.3275 116.821 78.7441C116.881 76.9615 116.821 76.0853 116.163 74.7861C114.846 72.1878 115.145 70.2239 115.474 68.3508Z" fill="#F04E98"/>
<path d="M84.838 41.7933L84.6585 41.7631C84.479 41.7328 84.3294 41.7026 84.1499 41.7026C83.0131 41.7026 81.9659 42.4882 81.6069 43.6363C81.0085 45.6303 80.081 47.141 78.8544 48.1381C77.6277 49.1351 76.072 49.6487 74.2171 49.6487C72.3622 49.6487 70.8065 49.1351 69.5798 48.1381C68.3531 47.141 67.4257 45.6303 66.8273 43.6363C66.4683 42.4882 65.4511 41.7026 64.2843 41.7026C64.1048 41.7026 63.9551 41.7328 63.7757 41.7631L63.5962 41.7933C62.3396 42.035 61.4719 43.1831 61.4719 44.4218C61.4719 44.6635 61.5019 44.9052 61.5617 45.1469C62.4592 48.3797 64.015 50.8573 66.1691 52.519C68.3232 54.1807 71.0158 55.0267 74.1871 55.0267C77.3585 55.0267 80.0512 54.1807 82.2053 52.519C84.3593 50.8573 85.9151 48.3797 86.8126 45.1469C86.8724 44.9052 86.9024 44.6635 86.9024 44.4218C86.9622 43.1831 86.0946 42.0652 84.838 41.7933Z" fill="#F04E98"/>
</svg>
